<?xml version="1.0" encoding="UTF-8" standalone="no"?>
<!DOCTYPE svg PUBLIC "-//W3C//DTD SVG 1.1//EN"
 "http://www.w3.org/Graphics/SVG/1.1/DTD/svg11.dtd">
<!-- Generated by graphviz version 2.47.3 (20210619.2315)
 -->
<!-- Title: snakemake_dag Pages: 1 -->
<svg width="1092pt" height="308pt"
 viewBox="0.00 0.00 1092.00 308.00" xmlns="http://www.w3.org/2000/svg" xmlns:xlink="http://www.w3.org/1999/xlink">
<g id="graph0" class="graph" transform="scale(1 1) rotate(0) translate(4 304)">
<title>snakemake_dag</title>
<polygon fill="white" stroke="transparent" points="-4,4 -4,-304 1088,-304 1088,4 -4,4"/>
<!-- 0 -->
<g id="node1" class="node">
<title>0</title>
<path fill="none" stroke="#70d856" stroke-width="2" stroke-dasharray="5,2" d="M559,-36C559,-36 529,-36 529,-36 523,-36 517,-30 517,-24 517,-24 517,-12 517,-12 517,-6 523,0 529,0 529,0 559,0 559,0 565,0 571,-6 571,-12 571,-12 571,-24 571,-24 571,-30 565,-36 559,-36"/>
<text text-anchor="middle" x="544" y="-15.5" font-family="sans" font-size="10.00">all</text>
</g>
<!-- 1 -->
<g id="node2" class="node">
<title>1</title>
<path fill="none" stroke="#56b1d8" stroke-width="2" stroke-dasharray="5,2" d="M117.5,-116C117.5,-116 12.5,-116 12.5,-116 6.5,-116 0.5,-110 0.5,-104 0.5,-104 0.5,-92 0.5,-92 0.5,-86 6.5,-80 12.5,-80 12.5,-80 117.5,-80 117.5,-80 123.5,-80 129.5,-86 129.5,-92 129.5,-92 129.5,-104 129.5,-104 129.5,-110 123.5,-116 117.5,-116"/>
<text text-anchor="middle" x="65" y="-95.5" font-family="sans" font-size="10.00">star_genome_generate</text>
</g>
<!-- 1&#45;&gt;0 -->
<g id="edge1" class="edge">
<title>1&#45;&gt;0</title>
<path fill="none" stroke="grey" stroke-width="2" d="M110.78,-79.98C120.03,-76.99 129.75,-74.15 139,-72 272.05,-41.13 434.16,-26.71 506.28,-21.46"/>
<polygon fill="grey" stroke="grey" stroke-width="2" points="506.93,-24.92 516.66,-20.72 506.43,-17.94 506.93,-24.92"/>
</g>
<!-- 2 -->
<g id="node3" class="node">
<title>2</title>
<path fill="none" stroke="#d85656" stroke-width="2" stroke-dasharray="5,2" d="M402.5,-204C402.5,-204 293.5,-204 293.5,-204 287.5,-204 281.5,-198 281.5,-192 281.5,-192 281.5,-180 281.5,-180 281.5,-174 287.5,-168 293.5,-168 293.5,-168 402.5,-168 402.5,-168 408.5,-168 414.5,-174 414.5,-180 414.5,-180 414.5,-192 414.5,-192 414.5,-198 408.5,-204 402.5,-204"/>
<text text-anchor="middle" x="348" y="-183.5" font-family="sans" font-size="10.00">samtools_faidx_regions</text>
</g>
<!-- 2&#45;&gt;1 -->
<g id="edge7" class="edge">
<title>2&#45;&gt;1</title>
<path fill="none" stroke="grey" stroke-width="2" d="M286.98,-167.92C245.19,-156.04 188.58,-139.6 139,-124 134.19,-122.49 129.22,-120.89 124.23,-119.25"/>
<polygon fill="grey" stroke="grey" stroke-width="2" points="125.26,-115.91 114.66,-116.1 123.06,-122.55 125.26,-115.91"/>
</g>
<!-- 6 -->
<g id="node7" class="node">
<title>6</title>
<path fill="none" stroke="#d8b456" stroke-width="2" stroke-dasharray="5,2" d="M324,-116C324,-116 160,-116 160,-116 154,-116 148,-110 148,-104 148,-104 148,-92 148,-92 148,-86 154,-80 160,-80 160,-80 324,-80 324,-80 330,-80 336,-86 336,-92 336,-92 336,-104 336,-104 336,-110 330,-116 324,-116"/>
<text text-anchor="middle" x="242" y="-95.5" font-family="sans" font-size="10.00">picard_create_sequence_dictionary</text>
</g>
<!-- 2&#45;&gt;6 -->
<g id="edge11" class="edge">
<title>2&#45;&gt;6</title>
<path fill="none" stroke="grey" stroke-width="2" d="M326.8,-167.8C310.92,-154.91 288.98,-137.11 271.4,-122.85"/>
<polygon fill="grey" stroke="grey" stroke-width="2" points="273.13,-119.75 263.16,-116.17 268.72,-125.19 273.13,-119.75"/>
</g>
<!-- 7 -->
<g id="node8" class="node">
<title>7</title>
<path fill="none" stroke="#ced856" stroke-width="2" stroke-dasharray="5,2" d="M542,-116C542,-116 366,-116 366,-116 360,-116 354,-110 354,-104 354,-104 354,-92 354,-92 354,-86 360,-80 366,-80 366,-80 542,-80 542,-80 548,-80 554,-86 554,-92 554,-92 554,-104 554,-104 554,-110 548,-116 542,-116"/>
<text text-anchor="middle" x="454" y="-101" font-family="sans" font-size="10.00">bwa_index</text>
<text text-anchor="middle" x="454" y="-90" font-family="sans" font-size="10.00">file: reference/GRCh38/homo_sapiens</text>
</g>
<!-- 2&#45;&gt;7 -->
<g id="edge12" class="edge">
<title>2&#45;&gt;7</title>
<path fill="none" stroke="grey" stroke-width="2" d="M369.2,-167.8C385.08,-154.91 407.02,-137.11 424.6,-122.85"/>
<polygon fill="grey" stroke="grey" stroke-width="2" points="427.28,-125.19 432.84,-116.17 422.87,-119.75 427.28,-125.19"/>
</g>
<!-- 8 -->
<g id="node9" class="node">
<title>8</title>
<path fill="none" stroke="#5682d8" stroke-width="2" stroke-dasharray="5,2" d="M684,-116C684,-116 584,-116 584,-116 578,-116 572,-110 572,-104 572,-104 572,-92 572,-92 572,-86 578,-80 584,-80 584,-80 684,-80 684,-80 690,-80 696,-86 696,-92 696,-92 696,-104 696,-104 696,-110 690,-116 684,-116"/>
<text text-anchor="middle" x="634" y="-95.5" font-family="sans" font-size="10.00">samtools_faidx_index</text>
</g>
<!-- 2&#45;&gt;8 -->
<g id="edge13" class="edge">
<title>2&#45;&gt;8</title>
<path fill="none" stroke="grey" stroke-width="2" d="M412.28,-167.88C455.17,-156.19 512.71,-139.97 563,-124 567.59,-122.54 572.32,-120.99 577.07,-119.4"/>
<polygon fill="grey" stroke="grey" stroke-width="2" points="578.44,-122.62 586.78,-116.09 576.19,-116 578.44,-122.62"/>
</g>
<!-- 3 -->
<g id="node4" class="node">
<title>3</title>
<path fill="none" stroke="#56d89a" stroke-width="2" stroke-dasharray="5,2" d="M401,-300C401,-300 295,-300 295,-300 289,-300 283,-294 283,-288 283,-288 283,-260 283,-260 283,-254 289,-248 295,-248 295,-248 401,-248 401,-248 407,-248 413,-254 413,-260 413,-260 413,-288 413,-288 413,-294 407,-300 401,-300"/>
<text text-anchor="middle" x="348" y="-288" font-family="sans" font-size="10.00">gunzip</text>
<text text-anchor="middle" x="348" y="-277" font-family="sans" font-size="10.00">species: homo_sapiens</text>
<text text-anchor="middle" x="348" y="-266" font-family="sans" font-size="10.00">type: fasta</text>
<text text-anchor="middle" x="348" y="-255" font-family="sans" font-size="10.00">version: GRCh38</text>
</g>
<!-- 3&#45;&gt;2 -->
<g id="edge9" class="edge">
<title>3&#45;&gt;2</title>
<path fill="none" stroke="grey" stroke-width="2" d="M348,-247.66C348,-237.11 348,-224.84 348,-214.1"/>
<polygon fill="grey" stroke="grey" stroke-width="2" points="351.5,-214 348,-204 344.5,-214 351.5,-214"/>
</g>
<!-- 4 -->
<g id="node5" class="node">
<title>4</title>
<path fill="none" stroke="#56d86b" stroke-width="2" stroke-dasharray="5,2" d="M97.5,-204C97.5,-204 32.5,-204 32.5,-204 26.5,-204 20.5,-198 20.5,-192 20.5,-192 20.5,-180 20.5,-180 20.5,-174 26.5,-168 32.5,-168 32.5,-168 97.5,-168 97.5,-168 103.5,-168 109.5,-174 109.5,-180 109.5,-180 109.5,-192 109.5,-192 109.5,-198 103.5,-204 97.5,-204"/>
<text text-anchor="middle" x="65" y="-183.5" font-family="sans" font-size="10.00">refseq_to_ucsc</text>
</g>
<!-- 4&#45;&gt;1 -->
<g id="edge8" class="edge">
<title>4&#45;&gt;1</title>
<path fill="none" stroke="grey" stroke-width="2" d="M65,-167.6C65,-155.75 65,-139.82 65,-126.29"/>
<polygon fill="grey" stroke="grey" stroke-width="2" points="68.5,-126.08 65,-116.08 61.5,-126.08 68.5,-126.08"/>
</g>
<!-- 5 -->
<g id="node6" class="node">
<title>5</title>
<path fill="none" stroke="#56d89a" stroke-width="2" stroke-dasharray="5,2" d="M118,-300C118,-300 12,-300 12,-300 6,-300 0,-294 0,-288 0,-288 0,-260 0,-260 0,-254 6,-248 12,-248 12,-248 118,-248 118,-248 124,-248 130,-254 130,-260 130,-260 130,-288 130,-288 130,-294 124,-300 118,-300"/>
<text text-anchor="middle" x="65" y="-288" font-family="sans" font-size="10.00">gunzip</text>
<text text-anchor="middle" x="65" y="-277" font-family="sans" font-size="10.00">species: homo_sapiens</text>
<text text-anchor="middle" x="65" y="-266" font-family="sans" font-size="10.00">type: gtf</text>
<text text-anchor="middle" x="65" y="-255" font-family="sans" font-size="10.00">version: GRCh38</text>
</g>
<!-- 5&#45;&gt;4 -->
<g id="edge10" class="edge">
<title>5&#45;&gt;4</title>
<path fill="none" stroke="grey" stroke-width="2" d="M65,-247.66C65,-237.11 65,-224.84 65,-214.1"/>
<polygon fill="grey" stroke="grey" stroke-width="2" points="68.5,-214 65,-204 61.5,-214 68.5,-214"/>
</g>
<!-- 6&#45;&gt;0 -->
<g id="edge2" class="edge">
<title>6&#45;&gt;0</title>
<path fill="none" stroke="grey" stroke-width="2" d="M307.9,-79.98C368.83,-64.24 457.19,-41.42 506.73,-28.63"/>
<polygon fill="grey" stroke="grey" stroke-width="2" points="507.88,-31.94 516.69,-26.05 506.13,-25.17 507.88,-31.94"/>
</g>
<!-- 7&#45;&gt;0 -->
<g id="edge3" class="edge">
<title>7&#45;&gt;0</title>
<path fill="none" stroke="grey" stroke-width="2" d="M473.97,-79.69C486.44,-68.88 502.67,-54.82 516.36,-42.95"/>
<polygon fill="grey" stroke="grey" stroke-width="2" points="518.82,-45.46 524.08,-36.26 514.23,-40.17 518.82,-45.46"/>
</g>
<!-- 8&#45;&gt;0 -->
<g id="edge4" class="edge">
<title>8&#45;&gt;0</title>
<path fill="none" stroke="grey" stroke-width="2" d="M614.03,-79.69C601.56,-68.88 585.33,-54.82 571.64,-42.95"/>
<polygon fill="grey" stroke="grey" stroke-width="2" points="573.77,-40.17 563.92,-36.26 569.18,-45.46 573.77,-40.17"/>
</g>
<!-- 9 -->
<g id="node10" class="node">
<title>9</title>
<path fill="none" stroke="#9fd856" stroke-width="2" stroke-dasharray="5,2" d="M832,-124C832,-124 726,-124 726,-124 720,-124 714,-118 714,-112 714,-112 714,-84 714,-84 714,-78 720,-72 726,-72 726,-72 832,-72 832,-72 838,-72 844,-78 844,-84 844,-84 844,-112 844,-112 844,-118 838,-124 832,-124"/>
<text text-anchor="middle" x="779" y="-112" font-family="sans" font-size="10.00">bcftools_view</text>
<text text-anchor="middle" x="779" y="-101" font-family="sans" font-size="10.00">species: homo_sapiens</text>
<text text-anchor="middle" x="779" y="-90" font-family="sans" font-size="10.00">type: known_indels</text>
<text text-anchor="middle" x="779" y="-79" font-family="sans" font-size="10.00">version: GRCh38</text>
</g>
<!-- 9&#45;&gt;0 -->
<g id="edge5" class="edge">
<title>9&#45;&gt;0</title>
<path fill="none" stroke="grey" stroke-width="2" d="M713.64,-74.89C710.72,-73.91 707.83,-72.94 705,-72 662.37,-57.78 613.31,-41.67 580.66,-30.98"/>
<polygon fill="grey" stroke="grey" stroke-width="2" points="581.68,-27.63 571.08,-27.84 579.5,-34.28 581.68,-27.63"/>
</g>
<!-- 10 -->
<g id="node11" class="node">
<title>10</title>
<path fill="none" stroke="#56d8c9" stroke-width="2" stroke-dasharray="5,2" d="M1072,-116C1072,-116 874,-116 874,-116 868,-116 862,-110 862,-104 862,-104 862,-92 862,-92 862,-86 868,-80 874,-80 874,-80 1072,-80 1072,-80 1078,-80 1084,-86 1084,-92 1084,-92 1084,-104 1084,-104 1084,-110 1078,-116 1072,-116"/>
<text text-anchor="middle" x="973" y="-101" font-family="sans" font-size="10.00">picard_interval_list_to_bed</text>
<text text-anchor="middle" x="973" y="-90" font-family="sans" font-size="10.00">file: reference/GRCh38/homo_sapiens.wgs</text>
</g>
<!-- 10&#45;&gt;0 -->
<g id="edge6" class="edge">
<title>10&#45;&gt;0</title>
<path fill="none" stroke="grey" stroke-width="2" d="M893.36,-80C879.91,-77.24 866.07,-74.48 853,-72 755.34,-53.46 639.76,-34.4 581.53,-25"/>
<polygon fill="grey" stroke="grey" stroke-width="2" points="581.77,-21.49 571.34,-23.35 580.66,-28.4 581.77,-21.49"/>
</g>
<!-- 11 -->
<g id="node12" class="node">
<title>11</title>
<path fill="none" stroke="#d88556" stroke-width="2" stroke-dasharray="5,2" d="M1026,-212C1026,-212 920,-212 920,-212 914,-212 908,-206 908,-200 908,-200 908,-172 908,-172 908,-166 914,-160 920,-160 920,-160 1026,-160 1026,-160 1032,-160 1038,-166 1038,-172 1038,-172 1038,-200 1038,-200 1038,-206 1032,-212 1026,-212"/>
<text text-anchor="middle" x="973" y="-200" font-family="sans" font-size="10.00">get_interval_file</text>
<text text-anchor="middle" x="973" y="-189" font-family="sans" font-size="10.00">species: homo_sapiens</text>
<text text-anchor="middle" x="973" y="-178" font-family="sans" font-size="10.00">type: wgs</text>
<text text-anchor="middle" x="973" y="-167" font-family="sans" font-size="10.00">version: GRCh38</text>
</g>
<!-- 11&#45;&gt;10 -->
<g id="edge14" class="edge">
<title>11&#45;&gt;10</title>
<path fill="none" stroke="grey" stroke-width="2" d="M973,-159.66C973,-149.11 973,-136.84 973,-126.1"/>
<polygon fill="grey" stroke="grey" stroke-width="2" points="976.5,-126 973,-116 969.5,-126 976.5,-126"/>
</g>
</g>
</svg>
